# xmcd
#
# Track frame offsets: 
#        150
#        2324
#        19709
#        35905
#        50785
#        67585
#        85493
#        102608
#        120607
#
# Disc length: 1671 seconds
#
# Revision: 0
# Processed by: cddbd v1.5.2PL0 Copyright (c) Steve Scherf et al.
# Submitted via: ExactAudioCopy v1.1
#
DISCID=6f068509
DTITLE=Lefty Steve Manik - 3 Point Play2
DYEAR=1900
DGENRE=Hip-Hop
TTITLE0=The Opposit of the Ending
TTITLE1=Two Packs of Shakers
TTITLE2=Isosceles
TTITLE3=Meanwhile... (on Marconi) ft Doom P
TTITLE4=Too Trill to Spill
TTITLE5=Analog Mainstream ft. Teavyoso
TTITLE6=Just Crusin' ft Mike Lowrey
TTITLE7=A Family Matter
TTITLE8=The Opposite of the Opposite of the Ending
EXTD=
EXTT0=
EXTT1=
EXTT2=
EXTT3=
EXTT4=
EXTT5=
EXTT6=
EXTT7=
EXTT8=
PLAYORDER=
